<svg width="24" height="24" viewBox="0 0 24 24" fill="none" xmlns="http://www.w3.org/2000/svg">
<path d="M12 23C18.05 23 23 18.05 23 12C23 5.95 18.05 1 12 1C5.95 1 1 5.95 1 12C1 18.05 5.95 23 12 23Z" stroke="#071C1F" stroke-miterlimit="10"/>
<path d="M12.7366 11.5002H12.2366V12.0002V16.5418H11.1905V12.0002V11.5002H10.6905H10.2084V10.7356H10.6087H11.1087V10.2356V9.22725C11.1087 8.56544 11.2438 8.14593 11.4723 7.89066C11.6906 7.64682 12.0802 7.4585 12.8185 7.4585H13.7099V8.22308H13.3914C13.0517 8.22308 12.6932 8.29513 12.4582 8.59002C12.2469 8.85509 12.2366 9.18846 12.2366 9.3953V10.2356V10.7356H12.7366H13.7432L13.6723 11.5002H12.7366Z" fill="#071C1F" stroke="#071C1F"/>
</svg>
