<svg width="24" height="24" viewBox="0 0 24 24" fill="none" xmlns="http://www.w3.org/2000/svg">
<path d="M12 1C5.95 1 1 5.95 1 12C1 18.05 5.95 23 12 23C18.05 23 23 18.05 23 12C23 5.95 18.05 1 12 1Z" stroke="#071C1F" stroke-miterlimit="10"/>
<path d="M18 8.94694C17.5951 9.10786 17.1602 9.21615 16.7037 9.26499C17.17 9.0151 17.5274 8.61943 17.6958 8.14766C17.2601 8.37901 16.7769 8.54712 16.2625 8.63799C15.8509 8.24535 15.2645 8 14.6155 8C13.3692 8 12.3589 8.90454 12.3589 10.0196C12.3589 10.1779 12.3792 10.3323 12.4173 10.4796C10.5419 10.3956 8.87924 9.59137 7.76574 8.36916C7.57198 8.66752 7.46071 9.01434 7.46071 9.38502C7.46071 10.0855 7.85881 10.7038 8.46421 11.0657C8.09446 11.0551 7.74628 10.9643 7.4421 10.8132C7.4421 10.8219 7.4421 10.8299 7.4421 10.8386C7.4421 11.8173 8.21968 12.6336 9.25237 12.8188C9.06327 12.865 8.86358 12.8896 8.65755 12.8896C8.51244 12.8896 8.37072 12.8767 8.23322 12.8536C8.52048 13.6559 9.35391 14.2401 10.3413 14.2564C9.56925 14.7982 8.59621 15.1212 7.53856 15.1212C7.35664 15.1212 7.17684 15.1117 7 15.0928C7.99885 15.6657 9.18469 16 10.4594 16C14.6104 16 16.8797 12.9225 16.8797 10.2536C16.8797 10.1661 16.8776 10.079 16.8734 9.99233C17.3146 9.70723 17.6975 9.3517 18 8.94694Z" fill="black"/>
</svg>
