<svg width="24" height="24" viewBox="0 0 24 24" fill="none" xmlns="http://www.w3.org/2000/svg">
<path d="M12 1C5.95 1 1 5.95 1 12C1 18.05 5.95 23 12 23C18.05 23 23 18.05 23 12C23 5.95 18.05 1 12 1Z" stroke="#071C1F" stroke-miterlimit="10"/>
<path d="M16.053 11.9998V12.0279L16.0562 12.0558C16.1256 12.6723 16.057 13.3779 15.9104 14.0289L15.9074 14.0421L15.9052 14.0554C15.8676 14.278 15.6724 14.5044 15.3382 14.5578C15.2778 14.5618 15.2177 14.5658 15.1579 14.5697C14.0696 14.6416 13.0607 14.7082 11.9849 14.7082C10.8223 14.7082 9.7728 14.7075 8.65214 14.5608C8.38001 14.5138 8.15692 14.3463 8.05587 14.0132C7.91879 13.3942 7.91675 12.7673 7.91675 11.9998C7.91675 11.3008 7.91893 10.5944 8.05938 9.97082L8.06236 9.9576L8.06461 9.94423C8.10221 9.72169 8.29735 9.49524 8.63156 9.44185C8.69194 9.43787 8.75205 9.43391 8.81193 9.42995C9.90022 9.35811 10.9091 9.2915 11.9849 9.2915C13.1474 9.2915 14.197 9.29215 15.3177 9.43886C15.5898 9.48584 15.8129 9.65341 15.9139 9.98652C16.051 10.6054 16.053 11.2324 16.053 11.9998ZM10.7881 13.1457V14.0083L11.5366 13.5795L13.9368 12.2045L14.6942 11.7707L13.9368 11.3368L11.5366 9.96182L10.7881 9.53301V10.3957V13.1457Z" fill="#071C1F" stroke="#071C1F"/>
</svg>
