<svg width="103" height="108" viewBox="0 0 103 108" fill="none" xmlns="http://www.w3.org/2000/svg">
<path d="M101.695 79.2224C101.695 79.2224 101.624 75.6526 101.624 71.2417C101.624 66.8308 101.624 63.261 101.695 63.261C101.767 63.261 101.757 66.8308 101.757 71.2417C101.757 75.6526 101.726 79.2224 101.695 79.2224Z" fill="#E0E0E0"/>
<path d="M96.9246 107.288C96.8631 107.288 96.8017 101.134 96.8017 93.5118C96.8017 85.8902 96.8631 79.7456 96.9246 79.7456C96.986 79.7456 97.0372 85.9004 97.0372 93.5118C97.0372 101.123 96.986 107.288 96.9246 107.288Z" fill="#E0E0E0"/>
<path d="M94.4554 22.6287L96.3904 26.578L100.742 27.2037L97.5985 30.2811L98.3357 34.61L94.4554 32.5687L90.5649 34.61L91.3021 30.2811L88.159 27.2037L92.5102 26.578L94.4554 22.6287Z" fill="#EBEBEB"/>
<path d="M7.27934 71.6829L8.50792 74.1756L11.2415 74.5756L9.26554 76.5041L9.72626 79.243L7.27934 77.9505L4.83243 79.243L5.30338 76.5041L3.31718 74.5756L6.06101 74.1756L7.27934 71.6829Z" fill="#EBEBEB"/>
<path d="M8.8048 50.0281L11.5179 55.5469L17.5994 56.4291L13.197 60.7272L14.2413 66.7999L8.8048 63.9379L3.35811 66.7999L4.4024 60.7272L0 56.4291L6.08145 55.5469L8.8048 50.0281Z" fill="#EBEBEB"/>
<path d="M92.7252 40.4468L93.8924 42.8266L96.5133 43.2062L94.6193 45.0629L95.0698 47.6787L92.7252 46.4374L90.3807 47.6787L90.8209 45.0629L88.9269 43.2062L91.5478 42.8266L92.7252 40.4468Z" fill="#EBEBEB"/>
<path d="M82.7958 0L83.9732 2.37985L86.5941 2.76966L84.6898 4.61609L85.1403 7.23188L82.7958 6.00092L80.4512 7.23188L80.9017 4.61609L79.0077 2.76966L81.6184 2.37985L82.7958 0Z" fill="#EBEBEB"/>
<path d="M81.064 27.3574L81.8318 28.9064L83.5518 29.1628L82.313 30.3733L82.5997 32.0864L81.064 31.276L79.5385 32.0864L79.8251 30.3733L78.5863 29.1628L80.3063 28.9064L81.064 27.3574Z" fill="#EBEBEB"/>
<path d="M96.7277 71.9089L98.2225 74.9453L101.57 75.4274L99.1439 77.7868L99.7173 81.1206L96.7277 79.5511L93.7382 81.1206L94.3115 77.7868L91.8953 75.4274L95.233 74.9453L96.7277 71.9089Z" fill="#EBEBEB"/>
<path d="M100.669 68.8931L101.294 70.1445L102.676 70.3497L101.673 71.3242L101.908 72.6988L100.669 72.0525L99.4408 72.6988L99.6763 71.3242L98.673 70.3497L100.055 70.1445L100.669 68.8931Z" fill="#EBEBEB"/>
<path d="M59.5396 3.05963L3.73805 15.516C2.38588 15.8178 1.53393 17.1608 1.83518 18.5155L19.9381 99.9272C20.2393 101.282 21.5797 102.136 22.9319 101.834L78.7335 89.3774C80.0856 89.0756 80.9376 87.7326 80.6363 86.3778L62.5334 4.96615C62.2322 3.61136 60.8918 2.75779 59.5396 3.05963Z" fill="#E0E0E0"/>
<path d="M78.7313 89.3368L78.9258 89.2855C79.1056 89.2204 79.2802 89.1415 79.4479 89.0496C79.7166 88.8945 79.953 88.689 80.1441 88.4444C80.4165 88.0999 80.5931 87.6894 80.656 87.2544C80.697 86.9996 80.697 86.7399 80.656 86.4851C80.656 86.2081 80.5332 85.9312 80.4717 85.6234C80.3387 85.0285 80.1851 84.3822 80.0315 83.6744L78.9463 78.8019L72.0048 47.7202C70.551 41.1653 68.9334 33.9745 67.2236 26.2605C66.3704 22.4035 65.4831 18.4165 64.5616 14.2997C64.1112 12.2481 63.6402 10.1965 63.1693 8.05254L62.4628 4.86229C62.3291 4.33587 62.0227 3.86982 61.5926 3.53904C61.1629 3.20203 60.6333 3.01796 60.0876 3.01587C59.8147 3.02385 59.5435 3.0617 59.2788 3.12872L58.47 3.31336L56.8319 3.68263L53.525 4.42121L46.7985 5.91887L32.9258 8.99626L3.75738 15.5101C3.14398 15.6483 2.60594 16.015 2.25234 16.5359C1.89955 17.059 1.76371 17.6991 1.87354 18.3208C2.13973 19.5518 2.42639 20.8032 2.69258 22.0342C3.24544 24.5064 3.7881 26.9683 4.33072 29.3994C5.41596 34.2822 6.48414 39.0693 7.53526 43.7606L13.586 70.9853C15.5107 79.6636 17.3433 87.911 19.0634 95.6045L19.6982 98.4767C19.8108 98.9486 19.9029 99.4204 20.0156 99.882C20.1388 100.34 20.3911 100.753 20.7424 101.072C21.0861 101.387 21.5124 101.597 21.971 101.677C22.2021 101.708 22.4361 101.708 22.6672 101.677C22.8924 101.677 23.1177 101.595 23.3429 101.544L26.056 100.939L36.2942 98.6511L67.3157 91.7372L75.752 89.8703L77.9429 89.3881L78.6903 89.224L77.9531 89.3984L75.752 89.8908L67.326 91.7885L36.3556 98.8973L26.1174 101.195L23.4044 101.8L22.7184 101.944C22.4805 101.975 22.2396 101.975 22.0018 101.944C21.518 101.865 21.0673 101.648 20.7039 101.319C20.3406 100.989 20.0802 100.562 19.9541 100.087C19.8415 99.6153 19.7391 99.1435 19.6367 98.6716L18.9917 95.7994C17.282 88.0854 15.4391 79.8379 13.5143 71.1802C11.5895 62.5225 9.55215 53.3928 7.45334 43.9555C6.40222 39.2231 5.33404 34.4361 4.24879 29.5943C3.70617 27.1529 3.15334 24.7013 2.61072 22.2291C2.33429 20.9879 2.04762 19.7569 1.78143 18.5054C1.67438 17.8517 1.81688 17.1814 2.18067 16.6282C2.55121 16.0776 3.11982 15.6917 3.76763 15.5511L32.9361 9.0373L46.8087 5.95991L53.525 4.46225L56.8319 3.72367L58.47 3.35437L59.289 3.18C59.559 3.10322 59.8377 3.06185 60.1183 3.05691C60.6889 3.06133 61.2425 3.25222 61.695 3.60058C62.1396 3.9499 62.4564 4.43682 62.5959 4.98542L63.3126 8.1859C63.7836 10.299 64.2477 12.3814 64.705 14.433C65.6196 18.5362 66.5035 22.5231 67.3567 26.3938C69.0665 34.1078 70.6636 41.2987 72.1276 47.8535L79.018 78.9455C79.4275 80.7817 79.7858 82.4127 80.0418 83.818C80.2056 84.5258 80.3489 85.1823 80.482 85.7773C80.5434 86.0748 80.6151 86.3518 80.656 86.6287C80.6967 86.8904 80.6967 87.1569 80.656 87.4186C80.5855 87.8532 80.4058 88.2627 80.1339 88.6085C79.9329 88.8542 79.6903 89.0625 79.4172 89.224C79.2508 89.3132 79.0759 89.3853 78.895 89.4394L78.7313 89.3368Z" fill="#263238"/>
<g opacity="0.3">
<path opacity="0.3" d="M25.7796 98.9076L76.612 87.2647L75.0046 77.2837L72.1174 71.6829L23.4965 90.8243L25.7796 98.9076Z" fill="black"/>
</g>
<g opacity="0.3">
<path opacity="0.3" d="M47.0033 6.00098L48.9178 9.18095L49.2966 10.8633L47.9964 11.1607L47.0033 6.00098Z" fill="black"/>
</g>
<path d="M4.7402 18.9466L22.3703 98.2408L77.6562 85.9005L74.5029 71.7136L60.0261 6.6062L4.7402 18.9466Z" fill="white"/>
<path d="M4.73 18.9466L60.0159 6.55493C64.92 28.5891 71.0425 56.0907 77.6563 85.8389V85.9004H77.7075L22.4215 98.21H22.3703V98.1587C11.9889 51.331 4.89386 19.3364 4.78124 18.844C4.89386 19.3364 12.0298 51.3208 22.4727 98.128H22.4113L77.6972 85.8184V85.8902C71.0834 56.142 64.9713 28.6301 60.0672 6.59594H60.1286L4.73 18.9466Z" fill="#263238"/>
<path d="M20.2949 9.55818L44.6781 4.11523C45.1552 4.00873 45.655 4.09649 46.0674 4.35917C46.4799 4.62186 46.7713 5.03798 46.8776 5.51597L48.2847 11.8438L20.3039 18.0899L18.8969 11.762C18.8442 11.5253 18.8387 11.2806 18.8804 11.0417C18.9222 10.8029 19.0105 10.5746 19.1403 10.37C19.2702 10.1653 19.439 9.98832 19.6371 9.84903C19.8352 9.70975 20.0587 9.61091 20.2949 9.55818Z" fill="#263238"/>
<path d="M35.3728 2.94409L28.2573 4.53408L30.4482 10.4632L35.813 9.26301L35.3728 2.94409Z" fill="#263238"/>
<path d="M44.6793 4.07236C44.6793 4.07236 39.2326 5.35461 32.5061 6.86253C25.7796 8.37046 20.3125 9.55012 20.3023 9.51935C20.292 9.48858 25.749 8.24737 32.4754 6.73944C39.2019 5.23152 44.669 4.04159 44.6793 4.07236Z" fill="#455A64"/>
<path d="M20.6503 16.5975C20.3946 15.7577 20.1827 14.9051 20.0155 14.0433C19.6981 12.6277 19.4729 11.4685 19.5036 11.4685C19.5343 11.4685 19.821 12.5969 20.1384 14.0228C20.4558 15.4486 20.681 16.5975 20.6503 16.5975Z" fill="#455A64"/>
<path d="M46.993 10.0836C46.993 10.0836 46.7064 9.05784 46.4197 7.76533C46.133 6.47283 45.9283 5.42651 45.959 5.42651C45.9897 5.42651 46.2456 6.45232 46.5323 7.74483C46.819 9.03733 46.993 10.0836 46.993 10.0836Z" fill="#455A64"/>
<path d="M45.8464 11.4683C45.8464 11.4683 40.2564 12.7814 33.3456 14.3201C26.4349 15.8588 20.8244 17.0897 20.8142 17.059C20.8039 17.0282 26.4042 15.7459 33.3149 14.2072C40.2257 12.6685 45.8362 11.4376 45.8464 11.4683Z" fill="#455A64"/>
<path d="M31.1137 34.5387C31.1137 34.5387 27.3461 35.4414 22.6877 36.4774C18.0293 37.5135 14.231 38.3751 14.231 38.3033C14.231 38.2315 17.9986 37.4007 22.657 36.3646C27.3153 35.3285 31.1137 34.5079 31.1137 34.5387Z" fill="#263238"/>
<path d="M59.2788 31.3587C59.2788 31.3587 49.4195 33.6257 37.2463 36.3441C25.0732 39.0625 15.2036 41.2372 15.1934 41.2064C15.1832 41.1756 25.0527 38.9394 37.2259 36.221C49.399 33.5026 59.2788 31.3279 59.2788 31.3587Z" fill="#263238"/>
<path d="M59.8624 34.0872C59.8624 34.0872 50.0031 36.3542 37.8402 39.0726C25.6773 41.791 15.7873 43.9657 15.777 43.9349C15.7668 43.9041 25.6364 41.6679 37.8095 38.9495C49.9827 36.2311 59.8522 34.0565 59.8624 34.0872Z" fill="#263238"/>
<path d="M60.4665 36.816C60.4665 36.816 50.6174 39.0727 38.4443 41.7911C26.2711 44.5095 16.3913 46.6842 16.3913 46.6534C16.3913 46.6226 26.2404 44.3966 38.4135 41.6783C50.5867 38.9599 60.4665 36.775 60.4665 36.816Z" fill="#263238"/>
<path d="M61.0705 39.5343C61.0705 39.5343 51.2214 41.8013 39.0483 44.5196C26.8751 47.238 17.0056 49.4127 16.9954 49.3819C16.9851 49.3512 26.8445 47.1149 39.0176 44.3965C51.1907 41.6782 61.0705 39.5035 61.0705 39.5343Z" fill="#263238"/>
<path d="M61.6847 42.263C61.6847 42.263 51.8255 44.53 39.6523 47.2484C27.4792 49.9668 17.6096 52.1415 17.5993 52.1004C17.5891 52.0594 27.4484 49.8437 39.6318 47.1253C51.8152 44.4069 61.6745 42.2322 61.6847 42.263Z" fill="#263238"/>
<path d="M26.1482 61.4452V61.3529L26.0868 61.0965L25.8615 60.122C25.667 59.2706 25.3906 58.0704 25.063 56.6753H25.1244L20.3534 57.7011V57.6293V57.8652V58.0294L20.425 58.3576L20.5684 58.9936C20.6605 59.4142 20.7527 59.8348 20.8346 60.2348C21.0189 61.0349 21.1827 61.794 21.3363 62.4916H21.2748L24.7251 61.7427L25.6977 61.5376L25.9639 61.4863H26.056H25.9741L25.7284 61.5478L24.766 61.7838L21.2953 62.5839C21.1418 61.8864 20.9677 61.1273 20.7834 60.3271L20.507 59.0962L20.3636 58.4499L20.2919 58.1319V57.9678V57.8857V57.8242V57.7524L25.063 56.7266V56.7779L25.8103 60.2656L26.0151 61.2298V61.4863C26.0571 61.4659 26.102 61.4521 26.1482 61.4452Z" fill="#263238"/>
<path d="M61.6055 49.7011L28.3184 57.1316L28.9373 59.9151L62.2245 52.4845L61.6055 49.7011Z" fill="#E0E0E0"/>
<path d="M27.991 69.7339C27.989 69.7031 27.989 69.6723 27.991 69.6415L27.9194 69.3851C27.8682 69.1492 27.7863 68.8209 27.6942 68.3593C27.4996 67.5181 27.2232 66.3077 26.8956 64.9126H26.957L22.1758 66.0718C22.1758 66.0718 22.2577 65.9384 22.1758 65.9999V66.0718V66.1538V66.3179L22.2475 66.6359L22.3908 67.2822C22.4795 67.7062 22.5716 68.1165 22.6672 68.5132L23.1586 70.7699H23.0972L26.5475 70.0313L27.5713 69.8262L27.8375 69.7749H27.9296H27.8477L27.602 69.8365L26.6396 70.0621L23.1689 70.8623V70.8007C23.0153 70.1134 22.8412 69.3543 22.657 68.5542L22.3806 67.313L22.2475 66.677L22.1655 66.3487V66.1846V66.1025V66.0718L22.2167 65.9897L26.9877 64.9639H27.0389C27.3461 66.4 27.6122 67.6002 27.7863 68.4516L27.991 69.4261V69.6723C27.991 69.7134 27.991 69.7441 27.991 69.7339Z" fill="#263238"/>
<path d="M63.4625 57.9926L30.1754 65.4231L30.7944 68.2066L64.0815 60.776L63.4625 57.9926Z" fill="#E0E0E0"/>
<path d="M29.8339 78.0324C29.8318 78.0017 29.8318 77.9708 29.8339 77.9401L29.7725 77.6836L29.537 76.7091C29.3425 75.868 29.066 74.6575 28.7486 73.2625H28.8101L24.0391 74.3395V74.2677V74.3293V74.4113V74.5755L24.1108 74.9037L24.2541 75.5397L24.5305 76.7809L25.0219 79.0377H24.9605L28.4108 78.2991L29.4346 78.094L29.6905 78.0427H29.7827H29.711L29.4551 78.1042L28.5644 78.3812L25.0936 79.1813H25.0424V79.13C24.8889 78.4325 24.7148 77.6734 24.5408 76.8733L24.2643 75.6423L24.121 75.0063L24.0494 74.6781V74.5139V74.4318V74.3703V74.2985L28.8203 73.2727V73.324L29.5677 76.8117L29.7622 77.776L29.8134 78.0324C29.8339 78.0016 29.8441 78.0324 29.8339 78.0324Z" fill="#263238"/>
<path d="M65.3015 66.2965L32.0144 73.7271L32.6333 76.5105L65.9204 69.08L65.3015 66.2965Z" fill="#E0E0E0"/>
<path d="M40.41 86.28C40.41 86.28 37.6047 86.9672 34.134 87.7468C30.6633 88.5264 27.8376 89.1214 27.8273 89.0906C27.8171 89.0598 30.6325 88.4033 34.1135 87.6237C37.5945 86.8441 40.41 86.2492 40.41 86.28Z" fill="#263238"/>
<path d="M46.686 84.7824C46.686 84.7824 45.6621 85.0696 44.3721 85.3568C43.0821 85.644 42.048 85.8492 42.0378 85.8184C42.0276 85.7876 43.0616 85.5312 44.3414 85.244C45.6211 84.9567 46.6757 84.7516 46.686 84.7824Z" fill="#263238"/>
<path d="M67.4693 78.2376C67.4693 78.2376 64.9507 78.8633 61.8179 79.5609C58.685 80.2584 56.1562 80.7919 56.146 80.7611C56.1357 80.7303 58.6646 80.1353 61.7974 79.4378C64.9303 78.7403 67.4693 78.2068 67.4693 78.2376Z" fill="#263238"/>
<path d="M64.7358 85.9107C64.7311 85.8321 64.7311 85.7533 64.7358 85.6748C64.79 85.4558 64.79 85.2269 64.7358 85.008C64.6326 84.6551 64.499 84.3119 64.3365 83.9822C64.1024 83.5523 63.9661 83.0759 63.9372 82.5871C63.9441 82.2885 64.0133 81.9946 64.1402 81.7244C64.2672 81.4541 64.4491 81.2134 64.6743 81.0177C64.9408 80.7998 65.2578 80.6527 65.596 80.59C65.9342 80.5272 66.2826 80.5508 66.6093 80.6586C66.9659 80.7722 67.2846 80.9815 67.5308 81.2638C67.6536 81.4203 67.7283 81.6092 67.7458 81.8075C67.7495 81.915 67.7186 82.0208 67.6578 82.1095C67.597 82.1981 67.5094 82.2648 67.4079 82.2999C67.2217 82.3658 67.0298 82.4138 66.8346 82.4435L66.251 82.5666C65.8619 82.6384 65.4627 82.7102 65.0634 82.7615C64.2719 82.869 63.4694 82.869 62.6779 82.7615C62.3281 82.6883 61.9636 82.7467 61.6541 82.9256C61.4066 83.1782 61.1963 83.465 61.0296 83.7771C60.9293 83.9353 60.7876 84.063 60.62 84.1463C60.4487 84.2128 60.2589 84.2128 60.0876 84.1463C59.7873 84.0136 59.5024 83.8485 59.2379 83.654C59.114 83.5737 58.9743 83.5212 58.8283 83.5001C58.6905 83.4861 58.5523 83.5225 58.4393 83.6027C58.2341 83.7831 58.067 84.0028 57.9479 84.2489C57.8162 84.4583 57.6354 84.6322 57.4213 84.7556C57.2072 84.8789 56.9661 84.948 56.7193 84.9567C56.3449 84.9718 55.9788 84.8434 55.6955 84.5977C55.5229 84.441 55.3866 84.2485 55.2962 84.0335C55.2622 83.9627 55.2413 83.8862 55.2347 83.8078C55.258 83.8811 55.2854 83.953 55.3167 84.0232C55.4125 84.229 55.5523 84.4111 55.7262 84.5566C55.8669 84.6761 56.0298 84.7666 56.2054 84.823C56.3811 84.8793 56.5662 84.9003 56.75 84.8849C56.9852 84.8721 57.2139 84.803 57.417 84.6834C57.62 84.5638 57.7915 84.3973 57.9171 84.1976C58.043 83.9413 58.2168 83.7114 58.429 83.5206C58.5591 83.4264 58.7205 83.386 58.8795 83.4078C59.0405 83.426 59.1949 83.4822 59.33 83.5719C59.5912 83.7547 59.8688 83.9127 60.1593 84.0437C60.2322 84.0745 60.3106 84.0904 60.3897 84.0904C60.4688 84.0904 60.5471 84.0745 60.62 84.0437C60.7669 83.9688 60.8907 83.8554 60.9783 83.7155C61.1482 83.3908 61.3656 83.0935 61.6233 82.8333C61.7857 82.716 61.9768 82.6452 62.1762 82.6282C62.3668 82.6076 62.559 82.6076 62.7496 82.6282C63.5308 82.7358 64.3231 82.7358 65.1043 82.6282C65.5036 82.5666 65.9029 82.5051 66.2919 82.423L66.8653 82.3101C67.0528 82.2757 67.2376 82.2277 67.4182 82.1665C67.4982 82.1417 67.5677 82.0909 67.6159 82.0223C67.664 81.9536 67.6881 81.8709 67.6844 81.787C67.6741 81.6142 67.6096 81.449 67.5001 81.3151C67.1675 80.9331 66.7001 80.6951 66.1961 80.6511C65.692 80.6071 65.1907 80.7606 64.7972 81.0792C64.5814 81.2638 64.4062 81.4914 64.2828 81.7474C64.1595 82.0035 64.0906 82.2824 64.0805 82.5666C64.1059 83.0436 64.2352 83.5093 64.4593 83.9309C64.6188 84.2596 64.7457 84.6032 64.8381 84.9567C64.8937 85.1859 64.8937 85.4251 64.8381 85.6543C64.8157 85.744 64.7813 85.8302 64.7358 85.9107Z" fill="#263238"/>
<path d="M70.7558 82.1768H70.6022L70.162 82.2896L68.5341 82.6692C67.1622 82.9872 65.2784 83.4283 63.2 83.9617C61.1217 84.4951 59.2379 84.9875 57.8865 85.367L56.2791 85.8184L55.8388 85.9312H55.6852L55.8286 85.8799L56.2688 85.7363L57.8557 85.2542C59.2071 84.8644 61.0807 84.3412 63.1693 83.8078C65.2579 83.2744 67.1417 82.8436 68.5136 82.5461L70.1517 82.2076L70.592 82.1255L70.7558 82.1768Z" fill="#263238"/>
<path d="M46.8825 18.2527L24.2881 23.2964L25.2343 27.5517L47.8288 22.508L46.8825 18.2527Z" fill="#E0E0E0"/>
</svg>
